<?xml version="1.0" standalone="no"?>
<!DOCTYPE svg PUBLIC "-//W3C//DTD SVG 20010904//EN"
 "http://www.w3.org/TR/2001/REC-SVG-20010904/DTD/svg10.dtd">
<svg version="1.0" xmlns="http://www.w3.org/2000/svg"
 width="700.000000pt" height="700.000000pt" viewBox="0 0 700.000000 700.000000"
 preserveAspectRatio="xMidYMid meet">
<metadata>
Created by potrace 1.11, written by Peter Selinger 2001-2013
</metadata>
<g transform="translate(0.000000,700.000000) scale(0.100000,-0.100000)"
fill="#000000" stroke="none">
<path d="M1599 6996 c-2 -2 -29 -6 -59 -10 -190 -21 -391 -82 -574 -173 -431
-215 -764 -615 -896 -1076 -16 -56 -34 -131 -40 -167 -6 -36 -14 -76 -17 -90
-9 -35 -15 -1530 -7 -1530 4 0 40 32 81 71 127 120 318 236 463 279 99 30 106
31 240 34 246 7 488 -58 710 -190 52 -31 97 -60 100 -63 3 -3 31 -25 62 -49
85 -65 202 -192 262 -285 103 -161 146 -292 151 -462 5 -156 -13 -247 -76
-390 l-19 -44 -83 59 c-157 113 -362 206 -542 246 -85 19 -273 25 -380 12
-199 -24 -396 -123 -568 -288 -168 -160 -317 -402 -357 -580 -23 -103 -25
-125 -25 -240 1 -116 3 -136 29 -248 66 -280 339 -578 680 -741 207 -99 323
-125 561 -126 180 0 247 10 410 61 127 40 357 161 400 210 6 6 21 18 35 27 95
64 316 325 391 462 90 166 176 377 195 480 3 15 11 55 19 89 17 75 27 143 40
281 27 275 27 987 0 1405 -24 364 -24 1131 0 1324 2 16 6 59 10 95 7 79 42
286 54 321 5 14 19 61 31 105 27 95 96 261 153 365 192 352 465 626 802 804
l50 26 -1141 0 c-628 -1 -1143 -3 -1145 -4z"/>
<path d="M5490 6245 c-41 -7 -75 -12 -75 -12 0 -1 -20 -6 -45 -13 -67 -17
-143 -46 -212 -81 -56 -28 -135 -76 -148 -89 -3 -3 -23 -18 -45 -35 -120 -90
-285 -292 -374 -458 -40 -74 -114 -263 -125 -319 -7 -34 -25 -129 -30 -163
-28 -162 -28 -817 -1 -1155 2 -30 7 -93 10 -140 5 -83 10 -141 20 -258 5 -52
7 -87 20 -267 3 -33 7 -109 10 -170 3 -60 8 -144 11 -185 7 -110 7 -504 -1
-580 -5 -57 -17 -163 -31 -270 -7 -51 -43 -239 -55 -285 -6 -22 -13 -51 -16
-65 -27 -152 -157 -471 -270 -662 -194 -328 -510 -651 -810 -830 -112 -67
-266 -142 -375 -183 -27 -10 -48 -19 -48 -20 0 -6 2536 2 2560 8 14 3 48 9 75
13 62 9 52 7 159 34 172 43 379 138 537 245 365 249 621 621 720 1043 46 200
47 211 47 1455 1 647 -2 1177 -6 1177 -4 0 -32 -26 -63 -58 -273 -280 -660
-390 -957 -270 -266 106 -473 341 -519 588 -2 14 -8 41 -12 60 -4 19 -9 64
-10 100 l-2 66 63 2 c447 13 905 349 1042 764 26 78 35 200 22 297 -35 254
-239 499 -531 637 -167 79 -359 107 -535 79z"/>
</g>
</svg>
