<?xml version="1.0" standalone="no"?>
<!DOCTYPE svg PUBLIC "-//W3C//DTD SVG 20010904//EN"
 "http://www.w3.org/TR/2001/REC-SVG-20010904/DTD/svg10.dtd">
<svg version="1.0" xmlns="http://www.w3.org/2000/svg"
 width="700.000000pt" height="700.000000pt" viewBox="0 0 700.000000 700.000000"
 preserveAspectRatio="xMidYMid meet">
<metadata>
Created by potrace 1.11, written by Peter Selinger 2001-2013
</metadata>
<g transform="translate(0.000000,700.000000) scale(0.100000,-0.100000)"
fill="#000000" stroke="none">
<path d="M1599 6996 c-2 -2 -29 -6 -59 -10 -30 -3 -68 -8 -85 -11 -121 -23
-188 -40 -259 -66 -44 -16 -85 -31 -91 -32 -5 -2 -36 -15 -69 -30 -32 -15 -60
-27 -63 -27 -2 0 -37 -19 -76 -41 -275 -159 -508 -390 -663 -657 -95 -164
-176 -383 -204 -552 -7 -41 -15 -84 -17 -95 -3 -11 -7 -153 -10 -316 l-5 -297
103 24 c151 34 204 39 404 38 202 0 242 -4 385 -37 218 -51 460 -171 610 -301
301 -263 459 -555 463 -861 3 -153 -12 -238 -62 -365 -24 -58 -91 -180 -101
-180 -3 0 -25 19 -50 43 -128 120 -262 214 -410 288 -322 162 -665 177 -972
44 -89 -38 -216 -119 -306 -194 l-62 -52 0 -835 0 -835 33 -33 c39 -40 142
-119 217 -168 348 -226 799 -275 1215 -133 381 130 752 472 959 884 107 211
193 506 241 821 4 25 9 54 11 65 3 11 7 36 10 55 2 19 7 46 9 60 2 14 7 45 10
70 4 25 8 56 10 70 7 45 25 194 30 255 3 33 7 74 10 90 3 17 7 57 10 90 3 33
7 83 10 110 13 150 18 216 40 510 3 44 8 96 10 115 2 19 7 69 10 111 3 42 8
87 10 100 2 13 7 56 10 94 13 126 14 140 20 175 2 19 7 58 11 85 3 28 7 61 9
75 3 14 11 70 20 125 8 55 17 109 19 120 2 11 7 40 11 65 73 447 183 754 372
1038 113 172 243 319 413 472 l45 40 -1086 -1 c-598 0 -1088 -2 -1090 -3z"/>
<path d="M5800 6293 c-250 -51 -455 -163 -661 -361 -140 -134 -262 -304 -343
-476 -93 -201 -154 -492 -201 -961 -3 -33 -8 -76 -10 -95 -8 -69 -15 -157 -20
-245 -3 -49 -8 -112 -10 -140 -6 -74 -19 -324 -30 -590 -4 -96 -8 -167 -21
-355 -4 -47 -8 -103 -9 -125 -18 -252 -41 -453 -70 -605 -37 -197 -97 -425
-156 -590 -32 -89 -37 -101 -63 -162 -9 -20 -16 -38 -16 -41 0 -12 -73 -163
-121 -249 -193 -348 -501 -686 -830 -910 -263 -179 -643 -333 -924 -374 -22
-4 -42 -8 -43 -9 -7 -6 3163 2 3188 7 14 4 48 10 75 14 28 4 52 8 55 9 3 1 23
5 45 9 148 29 375 122 524 215 163 101 325 241 437 376 60 73 164 226 164 242
0 7 4 13 8 13 25 0 148 308 183 460 44 185 46 248 47 1228 0 512 -2 932 -4
932 -3 0 -36 -13 -73 -29 -202 -86 -445 -105 -625 -50 -266 80 -504 318 -585
583 -12 37 -24 80 -27 95 -8 37 -13 228 -7 279 5 41 6 43 33 37 54 -12 246 -6
335 10 401 72 776 348 920 675 25 56 29 79 30 163 1 123 -10 223 -40 361 -27
121 -46 163 -109 245 -134 173 -327 316 -516 380 -147 51 -375 65 -530 34z"/>
</g>
</svg>
